<svg width="276" height="46" viewBox="0 0 276 46" fill="none" xmlns="http://www.w3.org/2000/svg">
<g clip-path="url(#clip0_339_112)">
<circle cx="40.5" cy="23.5" r="21.5" fill="url(#paint0_linear_339_112)"/>
<circle cx="62.5" cy="15.5" r="13.5" fill="url(#paint1_linear_339_112)"/>
</g>
<g clip-path="url(#clip1_339_112)">
<path opacity="0.9" d="M98.7502 35.2809V38.9755H81.8369V35.2809H98.7502ZM101.285 35.2809V9.09913H118.313V13.075H106.028V20.1829H117.431V24.1588H106.028V31.3051H118.415V35.2809H101.285ZM145.562 17.9329H140.781C140.645 17.1488 140.393 16.4542 140.027 15.8491C139.66 15.2355 139.204 14.7156 138.659 14.2895C138.114 13.8633 137.491 13.5437 136.792 13.3307C136.102 13.1091 135.356 12.9983 134.555 12.9983C133.132 12.9983 131.871 13.3562 130.771 14.0721C129.672 14.7795 128.811 15.8193 128.189 17.1915C127.567 18.5551 127.256 20.2213 127.256 22.19C127.256 24.1929 127.567 25.8804 128.189 27.2525C128.819 28.6162 129.68 29.6474 130.771 30.3463C131.871 31.0366 133.128 31.3818 134.542 31.3818C135.327 31.3818 136.06 31.2795 136.741 31.075C137.432 30.8619 138.05 30.5508 138.595 30.1417C139.149 29.7326 139.614 29.2298 139.989 28.6332C140.372 28.0366 140.636 27.3548 140.781 26.5878L145.562 26.6133C145.383 27.8576 144.996 29.0253 144.399 30.1162C143.811 31.2071 143.04 32.1701 142.085 33.0054C141.131 33.8321 140.014 34.4798 138.736 34.9486C137.457 35.4088 136.038 35.6389 134.479 35.6389C132.177 35.6389 130.123 35.1062 128.317 34.0409C126.51 32.9755 125.087 31.4372 124.047 29.4258C123.007 27.4145 122.487 25.0025 122.487 22.19C122.487 19.369 123.011 16.9571 124.06 14.9542C125.108 12.9429 126.535 11.4045 128.342 10.3392C130.149 9.27384 132.194 8.74117 134.479 8.74117C135.936 8.74117 137.291 8.94572 138.544 9.35481C139.797 9.7639 140.913 10.3648 141.893 11.1574C142.873 11.9415 143.679 12.9045 144.31 14.0466C144.949 15.1801 145.366 16.4755 145.562 17.9329ZM149.906 35.2809V9.09913H154.649V31.3051H166.18V35.2809H149.906ZM165.87 9.09913H171.226L177.631 20.6815H177.887L184.292 9.09913H189.648L180.124 25.5139V35.2809H175.394V25.5139L165.87 9.09913ZM193.007 35.2809V9.09913H202.826C204.837 9.09913 206.524 9.47413 207.888 10.2241C209.26 10.9741 210.296 12.0054 210.995 13.3179C211.702 14.6219 212.056 16.1048 212.056 17.7667C212.056 19.4457 211.702 20.9372 210.995 22.2412C210.287 23.5451 209.243 24.5721 207.862 25.3221C206.482 26.0636 204.781 26.4344 202.762 26.4344H196.254V22.5352H202.122C203.299 22.5352 204.262 22.3307 205.012 21.9216C205.762 21.5125 206.316 20.95 206.674 20.2341C207.04 19.5182 207.223 18.6957 207.223 17.7667C207.223 16.8378 207.04 16.0196 206.674 15.3122C206.316 14.6048 205.757 14.0551 204.999 13.663C204.249 13.2625 203.281 13.0622 202.097 13.0622H197.75V35.2809H193.007ZM230.404 16.2966C230.285 15.1801 229.782 14.3108 228.895 13.6886C228.018 13.0665 226.876 12.7554 225.469 12.7554C224.481 12.7554 223.633 12.9045 222.925 13.2028C222.218 13.5011 221.677 13.9059 221.302 14.4173C220.927 14.9287 220.735 15.5125 220.726 16.1687C220.726 16.7142 220.85 17.1872 221.097 17.5878C221.353 17.9883 221.698 18.3292 222.133 18.6105C222.567 18.8832 223.049 19.1133 223.577 19.3008C224.106 19.4883 224.638 19.646 225.175 19.7738L227.63 20.3875C228.618 20.6176 229.569 20.9287 230.481 21.3207C231.401 21.7128 232.224 22.2071 232.948 22.8037C233.681 23.4003 234.261 24.1204 234.687 24.9642C235.113 25.8079 235.326 26.7966 235.326 27.9301C235.326 29.4642 234.934 30.815 234.15 31.9826C233.366 33.1417 232.232 34.0494 230.749 34.7057C229.275 35.3534 227.489 35.6773 225.393 35.6773C223.356 35.6773 221.587 35.3619 220.087 34.7312C218.596 34.1005 217.428 33.1801 216.584 31.9699C215.749 30.7596 215.297 29.2852 215.229 27.5466H219.895C219.964 28.4585 220.245 29.217 220.739 29.8221C221.234 30.4273 221.877 30.879 222.67 31.1773C223.471 31.4755 224.366 31.6247 225.354 31.6247C226.386 31.6247 227.289 31.4713 228.065 31.1645C228.849 30.8491 229.462 30.4145 229.905 29.8605C230.349 29.298 230.574 28.6417 230.583 27.8917C230.574 27.2099 230.374 26.6474 229.982 26.2042C229.59 25.7525 229.04 25.3775 228.333 25.0792C227.634 24.7724 226.816 24.4997 225.878 24.2611L222.9 23.494C220.743 22.94 219.039 22.1005 217.786 20.9755C216.542 19.842 215.92 18.3378 215.92 16.4628C215.92 14.9201 216.337 13.5693 217.172 12.4102C218.016 11.2511 219.163 10.352 220.611 9.71276C222.06 9.06503 223.701 8.74117 225.533 8.74117C227.391 8.74117 229.019 9.06503 230.417 9.71276C231.823 10.352 232.927 11.2426 233.728 12.3846C234.529 13.5182 234.942 14.8221 234.968 16.2966H230.404ZM239.554 35.2809V9.09913H256.583V13.075H244.297V20.1829H255.701V24.1588H244.297V31.3051H256.685V35.2809H239.554ZM264.068 35.5622C263.292 35.5622 262.627 35.2895 262.073 34.744C261.519 34.1986 261.247 33.5338 261.255 32.7497C261.247 31.9826 261.519 31.3264 262.073 30.7809C262.627 30.2355 263.292 29.9628 264.068 29.9628C264.818 29.9628 265.47 30.2355 266.024 30.7809C266.586 31.3264 266.872 31.9826 266.88 32.7497C266.872 33.2696 266.735 33.7426 266.471 34.1687C266.215 34.5949 265.875 34.9358 265.448 35.1915C265.031 35.4386 264.571 35.5622 264.068 35.5622Z" fill="#A64DFF"/>
</g>
<defs>
<linearGradient id="paint0_linear_339_112" x1="65.87" y1="18.34" x2="27.7075" y2="45" gradientUnits="userSpaceOnUse">
<stop stop-color="#4201FA"/>
<stop offset="1" stop-color="#9E95A4" stop-opacity="0"/>
</linearGradient>
<linearGradient id="paint1_linear_339_112" x1="77.89" y1="9.614" x2="52.672" y2="23.168" gradientUnits="userSpaceOnUse">
<stop stop-color="#FF00D6"/>
<stop offset="1" stop-color="#644D4D" stop-opacity="0"/>
</linearGradient>
<clipPath id="clip0_339_112">
<rect width="257.143" height="46" fill="white"/>
</clipPath>
<clipPath id="clip1_339_112">
<rect width="207.429" height="35.0476" fill="white" transform="translate(68.5714 5.25714)"/>
</clipPath>
</defs>
</svg>
