<svg width="300" height="100" viewBox="0 0 300 100" fill="none" xmlns="http://www.w3.org/2000/svg">
<circle cx="40.5" cy="52.5" r="21.5" fill="url(#paint0_linear_339_112)"/>
<circle cx="62.5" cy="44.5" r="13.5" fill="url(#paint1_linear_339_112)"/>
<path opacity="0.9" d="M104.713 62.0238V65.7184H87.7996V62.0238H104.713ZM107.247 62.0238V35.842H124.276V39.8178H111.99V46.9258H123.394V50.9016H111.99V58.048H124.378V62.0238H107.247ZM151.525 44.6758H146.744C146.607 43.8917 146.356 43.1971 145.99 42.592C145.623 41.9783 145.167 41.4585 144.622 41.0323C144.076 40.6062 143.454 40.2866 142.755 40.0735C142.065 39.8519 141.319 39.7411 140.518 39.7411C139.095 39.7411 137.833 40.0991 136.734 40.815C135.634 41.5224 134.774 42.5622 134.152 43.9343C133.529 45.298 133.218 46.9641 133.218 48.9329C133.218 50.9357 133.529 52.6232 134.152 53.9954C134.782 55.359 135.643 56.3903 136.734 57.0891C137.833 57.7795 139.09 58.1247 140.505 58.1247C141.289 58.1247 142.022 58.0224 142.704 57.8178C143.394 57.6048 144.012 57.2937 144.558 56.8846C145.112 56.4755 145.576 55.9727 145.951 55.3761C146.335 54.7795 146.599 54.0977 146.744 53.3306L151.525 53.3562C151.346 54.6005 150.958 55.7681 150.362 56.859C149.774 57.9499 149.002 58.913 148.048 59.7482C147.093 60.5749 145.977 61.2227 144.698 61.6914C143.42 62.1516 142.001 62.3818 140.441 62.3818C138.14 62.3818 136.086 61.8491 134.279 60.7837C132.473 59.7184 131.049 58.1801 130.009 56.1687C128.97 54.1573 128.45 51.7454 128.45 48.9329C128.45 46.1119 128.974 43.6999 130.022 41.6971C131.071 39.6857 132.498 38.1474 134.305 37.082C136.112 36.0167 138.157 35.484 140.441 35.484C141.899 35.484 143.254 35.6886 144.507 36.0977C145.759 36.5068 146.876 37.1076 147.856 37.9002C148.836 38.6843 149.642 39.6474 150.272 40.7894C150.911 41.923 151.329 43.2184 151.525 44.6758ZM155.869 62.0238V35.842H160.611V58.048H172.143V62.0238H155.869ZM171.833 35.842H177.189L183.594 47.4244H183.85L190.255 35.842H195.611L186.087 52.2568V62.0238H181.357V52.2568L171.833 35.842ZM198.97 62.0238V35.842H208.788C210.8 35.842 212.487 36.217 213.851 36.967C215.223 37.717 216.258 38.7482 216.957 40.0607C217.665 41.3647 218.018 42.8477 218.018 44.5096C218.018 46.1886 217.665 47.6801 216.957 48.984C216.25 50.288 215.206 51.315 213.825 52.065C212.444 52.8065 210.744 53.1772 208.724 53.1772H202.217V49.2781H208.085C209.261 49.2781 210.224 49.0735 210.974 48.6644C211.724 48.2553 212.278 47.6928 212.636 46.9769C213.003 46.261 213.186 45.4386 213.186 44.5096C213.186 43.5806 213.003 42.7624 212.636 42.0551C212.278 41.3477 211.72 40.798 210.962 40.4059C210.212 40.0053 209.244 39.8051 208.06 39.8051H203.713V62.0238H198.97ZM236.367 43.0394C236.247 41.923 235.745 41.0536 234.858 40.4315C233.98 39.8093 232.838 39.4982 231.432 39.4982C230.443 39.4982 229.595 39.6474 228.888 39.9457C228.181 40.244 227.639 40.6488 227.264 41.1602C226.889 41.6715 226.698 42.2553 226.689 42.9116C226.689 43.457 226.813 43.9301 227.06 44.3306C227.316 44.7312 227.661 45.0721 228.095 45.3533C228.53 45.6261 229.012 45.8562 229.54 46.0437C230.068 46.2312 230.601 46.3889 231.138 46.5167L233.593 47.1303C234.581 47.3605 235.532 47.6715 236.443 48.0636C237.364 48.4556 238.186 48.9499 238.911 49.5465C239.644 50.1431 240.223 50.8633 240.649 51.707C241.076 52.5508 241.289 53.5394 241.289 54.673C241.289 56.207 240.897 57.5579 240.112 58.7255C239.328 59.8846 238.195 60.7923 236.712 61.4485C235.237 62.0962 233.452 62.4201 231.355 62.4201C229.318 62.4201 227.55 62.1048 226.05 61.4741C224.558 60.8434 223.391 59.923 222.547 58.7127C221.712 57.5025 221.26 56.0281 221.192 54.2894H225.858C225.926 55.2014 226.208 55.9599 226.702 56.565C227.196 57.1701 227.84 57.6218 228.632 57.9201C229.433 58.2184 230.328 58.3676 231.317 58.3676C232.348 58.3676 233.252 58.2141 234.027 57.9073C234.811 57.592 235.425 57.1573 235.868 56.6033C236.311 56.0408 236.537 55.3846 236.546 54.6346C236.537 53.9528 236.337 53.3903 235.945 52.9471C235.553 52.4954 235.003 52.1204 234.296 51.8221C233.597 51.5153 232.779 51.2426 231.841 51.0039L228.862 50.2369C226.706 49.6829 225.002 48.8434 223.749 47.7184C222.505 46.5849 221.882 45.0806 221.882 43.2056C221.882 41.663 222.3 40.3122 223.135 39.1531C223.979 37.994 225.125 37.0948 226.574 36.4556C228.023 35.8079 229.664 35.484 231.496 35.484C233.354 35.484 234.982 35.8079 236.38 36.4556C237.786 37.0948 238.889 37.9855 239.691 39.1275C240.492 40.261 240.905 41.565 240.931 43.0394H236.367ZM245.517 62.0238V35.842H262.545V39.8178H250.26V46.9258H261.663V50.9016H250.26V58.048H262.648V62.0238H245.517ZM270.03 62.3051C269.255 62.3051 268.59 62.0323 268.036 61.4869C267.482 60.9414 267.209 60.2766 267.218 59.4926C267.209 58.7255 267.482 58.0693 268.036 57.5238C268.59 56.9783 269.255 56.7056 270.03 56.7056C270.78 56.7056 271.432 56.9783 271.986 57.5238C272.549 58.0693 272.834 58.7255 272.843 59.4926C272.834 60.0124 272.698 60.4855 272.434 60.9116C272.178 61.3377 271.837 61.6786 271.411 61.9343C270.994 62.1815 270.533 62.3051 270.03 62.3051Z" fill="#A64DFF"/>
<defs>
<linearGradient id="paint0_linear_339_112" x1="65.87" y1="47.34" x2="27.7075" y2="74" gradientUnits="userSpaceOnUse">
<stop stop-color="#4201FA"/>
<stop offset="1" stop-color="#9E95A4" stop-opacity="0"/>
</linearGradient>
<linearGradient id="paint1_linear_339_112" x1="77.89" y1="38.614" x2="52.672" y2="52.168" gradientUnits="userSpaceOnUse">
<stop stop-color="#FF00D6"/>
<stop offset="1" stop-color="#644D4D" stop-opacity="0"/>
</linearGradient>
</defs>
</svg>
