<svg width="48" height="48" viewBox="0 0 48 48" fill="none" xmlns="http://www.w3.org/2000/svg">
<path d="M15.095 43.0025C33.2083 43.0025 43.1155 27.9958 43.1155 14.982C43.1155 14.5558 43.1155 14.1315 43.0867 13.7091C45.0141 12.315 46.6778 10.5888 48 8.61146C46.2028 9.40826 44.2961 9.93057 42.3437 10.1609C44.3996 8.93027 45.9383 6.99446 46.6733 4.71386C44.7402 5.86107 42.6253 6.66951 40.4198 7.10426C38.935 5.52541 36.9712 4.47994 34.8324 4.12963C32.6935 3.77931 30.4988 4.14369 28.5879 5.16636C26.677 6.18904 25.1564 7.813 24.2615 9.78695C23.3665 11.7609 23.1471 13.9748 23.6371 16.086C19.7218 15.8896 15.8915 14.8721 12.3949 13.0995C8.89831 11.3269 5.81353 8.83878 3.3408 5.79674C2.08146 7.96473 1.69574 10.5312 2.2622 12.9736C2.82865 15.416 4.30468 17.5506 6.38976 18.943C4.82246 18.8971 3.2893 18.4742 1.92 17.7103V17.8351C1.92062 20.1088 2.7077 22.3123 4.14774 24.0719C5.58778 25.8314 7.59212 27.0387 9.8208 27.4889C8.37096 27.8844 6.84975 27.9422 5.37408 27.6579C6.00363 29.6145 7.22886 31.3255 8.87848 32.5517C10.5281 33.7779 12.5197 34.458 14.5747 34.4969C12.5329 36.1018 10.1946 37.2885 7.69375 37.9889C5.19287 38.6893 2.57843 38.8898 0 38.5788C4.50367 41.4688 9.74385 43.0018 15.095 42.9948" fill="white"/>
</svg>
