<svg width="441" height="316" viewBox="0 0 441 316" fill="none" xmlns="http://www.w3.org/2000/svg">
<g clip-path="url(#clip0_507_131)">
<rect width="440" height="316" transform="translate(0.5)" fill="black"/>
<ellipse cx="221" cy="158" rx="123" ry="126" fill="url(#paint0_linear_507_131)"/>
<path d="M441 102.5C441 148.616 404.511 186 359.5 186C314.489 186 278 148.616 278 102.5C278 56.3842 314.489 19 359.5 19C404.511 19 441 56.3842 441 102.5Z" fill="url(#paint1_linear_507_131)"/>
<circle cx="105.5" cy="230.5" r="53.5" fill="url(#paint2_linear_507_131)"/>
<path d="M90.9848 68.5733C90.5798 47.9753 73.0244 31.6146 51.7635 32.0069C31.0695 32.3796 14.405 48.5442 14.0202 68.5733C14.0202 68.6714 14 68.7695 14 68.848V69.4169V136.841C14 139.136 15.9236 140.98 18.2724 140.98C20.6213 140.98 22.5449 139.117 22.5449 136.841V124.796C22.5449 122.501 24.4685 120.657 26.8173 120.657C29.1661 120.657 31.0897 122.521 31.0897 124.796V130.505C31.1505 132.8 33.0943 134.605 35.4634 134.566C37.7515 134.526 39.5941 132.722 39.6549 130.505V124.796C39.6549 122.501 41.5785 120.657 43.9273 120.657C46.2964 120.657 48.1997 122.521 48.1997 124.796V126.366C48.1997 128.661 50.1233 130.505 52.4722 130.505C54.8412 130.505 56.7446 128.641 56.7446 126.366V124.796C56.8053 122.501 58.7492 120.696 61.1183 120.735C63.4063 120.775 65.249 122.579 65.3097 124.796V130.505C65.3097 132.8 67.2333 134.644 69.5821 134.644C71.931 134.644 73.8951 132.82 73.8951 130.524V124.816C73.8951 122.521 75.8187 120.677 78.1675 120.677C80.5366 120.677 82.4399 122.54 82.4399 124.816V136.861C82.4399 139.156 84.3635 141 86.7124 141C89.0612 141 90.9848 139.136 90.9848 136.861V68.8676C91.0051 68.7695 91.0051 68.6714 90.9848 68.5733ZM38.2982 74.5566C34.5117 74.5566 31.4542 71.1628 31.4542 66.9451C31.4542 62.7274 34.532 59.3337 38.2982 59.3337C42.0644 59.3337 45.1422 62.7274 45.1422 66.9451C45.1422 71.1628 42.0847 74.5566 38.2982 74.5566ZM52.7961 85.3068C49.3539 85.3068 46.5798 83.3255 46.5798 80.8733C46.5798 78.4212 49.3741 79.9121 52.7961 79.9121C56.2181 79.9121 59.0124 78.4408 59.0124 80.8733C59.0124 83.3059 56.2384 85.2872 52.7961 85.3068ZM66.7069 74.5566C62.9204 74.5566 59.8629 71.1628 59.8629 66.9451C59.8629 62.7274 62.9204 59.3337 66.7069 59.3337C70.4933 59.3337 73.5508 62.7274 73.5508 66.9451C73.5508 71.1628 70.4731 74.5566 66.7069 74.5566Z" fill="url(#paint3_linear_507_131)"/>
<g clip-path="url(#clip1_507_131)">
<path d="M98 103C98 94.7157 91.2843 88 83 88C74.7157 88 68 94.7157 68 103C68 111.284 74.7157 118 83 118C91.2843 118 98 111.284 98 103Z" fill="url(#paint4_linear_507_131)"/>
<g style="mix-blend-mode:screen" opacity="0.8">
<path fill-rule="evenodd" clip-rule="evenodd" d="M91.3882 110.303V107.326L91.3802 107.326L89.3318 102.605H86.0541L88.0003 107.224H81.6548C80.4312 107.224 79.2765 106.742 78.4033 105.867C77.5302 104.991 77.0486 103.834 77.0486 102.608C77.0486 101.382 77.5302 100.225 78.4033 99.3503C79.2764 98.4754 80.4312 97.9935 81.6548 97.9935L87.7009 97.9868L86.4206 94.9078L81.6548 94.9145C77.4211 94.9145 73.8223 98.3656 73.8223 102.608C73.8223 106.851 77.4211 110.303 81.6548 110.303H91.3882ZM81.1402 102.195C81.9888 102.195 82.6766 101.505 82.6766 100.655C82.6766 99.8051 81.9888 99.1158 81.1402 99.1158C80.2917 99.1158 79.6039 99.8051 79.6039 100.655C79.6039 101.505 80.2917 102.195 81.1402 102.195ZM82.6766 104.607C82.6766 105.457 81.9888 106.146 81.1402 106.146C80.2917 106.146 79.6039 105.457 79.6039 104.607C79.6039 103.756 80.2917 103.067 81.1402 103.067C81.9888 103.067 82.6766 103.756 82.6766 104.607Z" fill="white"/>
<path d="M91.3882 107.326H91.6811V107.042L91.3971 107.033L91.3882 107.326ZM91.3882 110.303V110.596H91.6811V110.303H91.3882ZM91.3802 107.326L91.1114 107.443L91.1854 107.613L91.3713 107.619L91.3802 107.326ZM89.3318 102.605L89.6006 102.489L89.5241 102.312H89.3318V102.605ZM86.0541 102.605V102.312H85.6128L85.7843 102.719L86.0541 102.605ZM88.0003 107.224V107.517H88.4416L88.2703 107.11L88.0003 107.224ZM81.6548 97.9935V98.2865H81.655L81.6548 97.9935ZM87.7009 97.9868L87.7012 98.2798L88.1398 98.2793L87.9714 97.8743L87.7009 97.9868ZM86.4206 94.9078L86.6911 94.7953L86.6159 94.6146L86.4201 94.6149L86.4206 94.9078ZM81.6548 94.9145V95.2075H81.6552L81.6548 94.9145ZM91.0952 107.326V110.303H91.6811V107.326H91.0952ZM91.3713 107.619L91.3793 107.619L91.3971 107.033L91.3891 107.033L91.3713 107.619ZM89.063 102.722L91.1114 107.443L91.6489 107.209L89.6006 102.489L89.063 102.722ZM86.0541 102.898H89.3318V102.312H86.0541V102.898ZM88.2703 107.11L86.3241 102.491L85.7843 102.719L87.7303 107.337L88.2703 107.11ZM81.6548 107.517H88.0003V106.931H81.6548V107.517ZM78.1959 106.074C79.1234 107.003 80.3526 107.517 81.6548 107.517V106.931C80.51 106.931 79.4294 106.48 78.6106 105.66L78.1959 106.074ZM76.7557 102.608C76.7557 103.913 77.2685 105.144 78.1959 106.074L78.6107 105.66C77.7917 104.839 77.3416 103.756 77.3416 102.608H76.7557ZM78.1959 99.1433C77.2685 100.073 76.7557 101.304 76.7557 102.608H77.3416C77.3416 101.461 77.7917 100.378 78.6107 99.5572L78.1959 99.1433ZM81.6548 97.7005C80.3526 97.7005 79.1234 98.2139 78.1959 99.1433L78.6107 99.5572C79.4295 98.7367 80.51 98.2865 81.6548 98.2865V97.7005ZM87.7005 97.6938L81.6545 97.7005L81.655 98.2865L87.7012 98.2798L87.7005 97.6938ZM86.15 95.0203L87.4304 98.0993L87.9714 97.8743L86.6911 94.7953L86.15 95.0203ZM81.6552 95.2075L86.4209 95.2008L86.4201 94.6149L81.6543 94.6215L81.6552 95.2075ZM74.1153 102.608C74.1153 98.5343 77.5759 95.2075 81.6548 95.2075V94.6215C77.2662 94.6215 73.5294 98.1968 73.5294 102.608H74.1153ZM81.6548 110.01C77.5759 110.01 74.1153 106.682 74.1153 102.608H73.5294C73.5294 107.02 77.2662 110.596 81.6548 110.596V110.01ZM91.3882 110.01H81.6548V110.596H91.3882V110.01ZM82.3836 100.655C82.3836 101.344 81.8264 101.902 81.1402 101.902V102.488C82.1511 102.488 82.9695 101.667 82.9695 100.655H82.3836ZM81.1402 99.4088C81.8264 99.4088 82.3836 99.9663 82.3836 100.655H82.9695C82.9695 99.6438 82.1511 98.8228 81.1402 98.8228V99.4088ZM79.8969 100.655C79.8969 99.9663 80.4541 99.4088 81.1402 99.4088V98.8228C80.1294 98.8228 79.3109 99.6438 79.3109 100.655H79.8969ZM81.1402 101.902C80.4541 101.902 79.8969 101.344 79.8969 100.655H79.3109C79.3109 101.667 80.1294 102.488 81.1402 102.488V101.902ZM81.1402 106.439C82.1511 106.439 82.9695 105.618 82.9695 104.607H82.3836C82.3836 105.296 81.8264 105.853 81.1402 105.853V106.439ZM79.3109 104.607C79.3109 105.618 80.1294 106.439 81.1402 106.439V105.853C80.4541 105.853 79.8969 105.296 79.8969 104.607H79.3109ZM81.1402 102.774C80.1294 102.774 79.3109 103.595 79.3109 104.607H79.8969C79.8969 103.918 80.4541 103.36 81.1402 103.36V102.774ZM82.9695 104.607C82.9695 103.595 82.1511 102.774 81.1402 102.774V103.36C81.8264 103.36 82.3836 103.918 82.3836 104.607H82.9695Z" fill="black"/>
</g>
</g>
<path d="M267.191 200.541C266.948 187.283 256.415 176.752 243.658 177.004C231.242 177.244 221.243 187.649 221.012 200.541C221.012 200.604 221 200.667 221 200.718V201.084V244.482C221 245.96 222.154 247.147 223.563 247.147C224.973 247.147 226.127 245.947 226.127 244.482V236.73C226.127 235.252 227.281 234.065 228.69 234.065C230.1 234.065 231.254 235.265 231.254 236.73V240.404C231.29 241.881 232.457 243.043 233.878 243.018C235.251 242.993 236.356 241.831 236.393 240.404V236.73C236.393 235.252 237.547 234.065 238.956 234.065C240.378 234.065 241.52 235.265 241.52 236.73V237.74C241.52 239.217 242.674 240.404 244.083 240.404C245.505 240.404 246.647 239.204 246.647 237.74V236.73C246.683 235.252 247.85 234.091 249.271 234.116C250.644 234.141 251.749 235.303 251.786 236.73V240.404C251.786 241.881 252.94 243.068 254.349 243.068C255.759 243.068 256.937 241.894 256.937 240.417V236.742C256.937 235.265 258.091 234.078 259.501 234.078C260.922 234.078 262.064 235.277 262.064 236.742V244.495C262.064 245.972 263.218 247.159 264.627 247.159C266.037 247.159 267.191 245.96 267.191 244.495V200.73C267.203 200.667 267.203 200.604 267.191 200.541ZM235.579 204.392C233.307 204.392 231.473 202.208 231.473 199.493C231.473 196.778 233.319 194.594 235.579 194.594C237.839 194.594 239.685 196.778 239.685 199.493C239.685 202.208 237.851 204.392 235.579 204.392ZM244.278 211.312C242.212 211.312 240.548 210.036 240.548 208.458C240.548 206.88 242.224 207.839 244.278 207.839C246.331 207.839 248.007 206.892 248.007 208.458C248.007 210.024 246.343 211.299 244.278 211.312ZM252.624 204.392C250.352 204.392 248.518 202.208 248.518 199.493C248.518 196.778 250.352 194.594 252.624 194.594C254.896 194.594 256.731 196.778 256.731 199.493C256.731 202.208 254.884 204.392 252.624 204.392Z" fill="white"/>
<path d="M397.585 186.374C397.187 165.325 379.951 148.606 359.077 149.007C338.759 149.388 322.398 165.907 322.02 186.374C322.02 186.475 322 186.575 322 186.655V187.236V256.137C322 258.483 323.889 260.367 326.195 260.367C328.501 260.367 330.39 258.463 330.39 256.137V243.828C330.39 241.483 332.278 239.599 334.584 239.599C336.89 239.599 338.779 241.503 338.779 243.828V249.662C338.839 252.007 340.747 253.852 343.073 253.812C345.32 253.772 347.129 251.927 347.188 249.662V243.828C347.188 241.483 349.077 239.599 351.383 239.599C353.709 239.599 355.578 241.503 355.578 243.828V245.432C355.578 247.778 357.467 249.662 359.773 249.662C362.099 249.662 363.967 247.758 363.967 245.432V243.828C364.027 241.483 365.936 239.639 368.262 239.679C370.508 239.719 372.317 241.563 372.377 243.828V249.662C372.377 252.007 374.265 253.892 376.572 253.892C378.878 253.892 380.806 252.028 380.806 249.682V243.848C380.806 241.503 382.695 239.619 385.001 239.619C387.327 239.619 389.196 241.523 389.196 243.848V256.157C389.196 258.503 391.084 260.387 393.39 260.387C395.696 260.387 397.585 258.483 397.585 256.157V186.675C397.605 186.575 397.605 186.475 397.585 186.374ZM345.856 192.489C342.139 192.489 339.137 189.02 339.137 184.71C339.137 180.4 342.159 176.932 345.856 176.932C349.554 176.932 352.576 180.4 352.576 184.71C352.576 189.02 349.574 192.489 345.856 192.489ZM360.091 203.474C356.711 203.474 353.987 201.449 353.987 198.944C353.987 196.438 356.731 197.961 360.091 197.961C363.451 197.961 366.194 196.458 366.194 198.944C366.194 201.429 363.47 203.454 360.091 203.474ZM373.749 192.489C370.031 192.489 367.029 189.02 367.029 184.71C367.029 180.4 370.031 176.932 373.749 176.932C377.466 176.932 380.468 180.4 380.468 184.71C380.468 189.02 377.446 192.489 373.749 192.489Z" fill="url(#paint5_linear_507_131)"/>
<path d="M220.191 56.5409C219.948 43.2827 209.415 32.7519 196.658 33.0044C184.242 33.2444 174.243 43.6489 174.012 56.5409C174.012 56.6041 174 56.6672 174 56.7177V57.0839V100.482C174 101.96 175.154 103.147 176.563 103.147C177.973 103.147 179.127 101.947 179.127 100.482V92.7296C179.127 91.2522 180.281 90.0653 181.69 90.0653C183.1 90.0653 184.254 91.2649 184.254 92.7296V96.404C184.29 97.8813 185.457 99.043 186.878 99.0178C188.251 98.9925 189.356 97.8308 189.393 96.404V92.7296C189.393 91.2522 190.547 90.0653 191.956 90.0653C193.378 90.0653 194.52 91.2649 194.52 92.7296V93.7397C194.52 95.2171 195.674 96.404 197.083 96.404C198.505 96.404 199.647 95.2044 199.647 93.7397V92.7296C199.683 91.2522 200.85 90.0906 202.271 90.1158C203.644 90.1411 204.749 91.3027 204.786 92.7296V96.404C204.786 97.8813 205.94 99.0683 207.349 99.0683C208.759 99.0683 209.937 97.894 209.937 96.4166V92.7422C209.937 91.2649 211.091 90.0779 212.501 90.0779C213.922 90.0779 215.064 91.2775 215.064 92.7422V100.495C215.064 101.972 216.218 103.159 217.627 103.159C219.037 103.159 220.191 101.96 220.191 100.495V56.7303C220.203 56.6672 220.203 56.6041 220.191 56.5409ZM188.579 60.3921C186.307 60.3921 184.473 58.2077 184.473 55.4929C184.473 52.7781 186.319 50.5937 188.579 50.5937C190.839 50.5937 192.685 52.7781 192.685 55.4929C192.685 58.2077 190.851 60.3921 188.579 60.3921ZM197.278 67.3117C195.212 67.3117 193.548 66.0364 193.548 64.458C193.548 62.8796 195.224 63.8393 197.278 63.8393C199.331 63.8393 201.007 62.8923 201.007 64.458C201.007 66.0237 199.343 67.299 197.278 67.3117ZM205.624 60.3921C203.352 60.3921 201.518 58.2077 201.518 55.4929C201.518 52.7781 203.352 50.5937 205.624 50.5937C207.896 50.5937 209.731 52.7781 209.731 55.4929C209.731 58.2077 207.884 60.3921 205.624 60.3921Z" fill="white"/>
<path d="M308.794 81.5322C308.632 72.7845 301.61 65.8363 293.105 66.0029C284.828 66.1612 278.162 73.0261 278.008 81.5322C278.008 81.5738 278 81.6155 278 81.6488V81.8904V110.525C278 111.499 278.769 112.282 279.709 112.282C280.649 112.282 281.418 111.491 281.418 110.525V105.409C281.418 104.434 282.187 103.651 283.127 103.651C284.066 103.651 284.836 104.443 284.836 105.409V107.834C284.86 108.808 285.638 109.575 286.585 109.558C287.501 109.541 288.238 108.775 288.262 107.834V105.409C288.262 104.434 289.031 103.651 289.971 103.651C290.919 103.651 291.68 104.443 291.68 105.409V106.076C291.68 107.05 292.449 107.834 293.389 107.834C294.336 107.834 295.098 107.042 295.098 106.076V105.409C295.122 104.434 295.9 103.668 296.847 103.685C297.763 103.701 298.5 104.468 298.524 105.409V107.834C298.524 108.808 299.293 109.591 300.233 109.591C301.172 109.591 301.958 108.817 301.958 107.842V105.418C301.958 104.443 302.727 103.66 303.667 103.66C304.615 103.66 305.376 104.451 305.376 105.418V110.533C305.376 111.508 306.145 112.291 307.085 112.291C308.024 112.291 308.794 111.499 308.794 110.533V81.6571C308.802 81.6155 308.802 81.5738 308.794 81.5322ZM287.719 84.0732C286.205 84.0732 284.982 82.6319 284.982 80.8407C284.982 79.0495 286.213 77.6082 287.719 77.6082C289.226 77.6082 290.457 79.0495 290.457 80.8407C290.457 82.6319 289.234 84.0732 287.719 84.0732ZM293.518 88.6386C292.142 88.6386 291.032 87.7972 291.032 86.7558C291.032 85.7144 292.15 86.3476 293.518 86.3476C294.887 86.3476 296.005 85.7227 296.005 86.7558C296.005 87.7889 294.895 88.6303 293.518 88.6386ZM299.083 84.0732C297.568 84.0732 296.345 82.6319 296.345 80.8407C296.345 79.0495 297.568 77.6082 299.083 77.6082C300.597 77.6082 301.82 79.0495 301.82 80.8407C301.82 82.6319 300.589 84.0732 299.083 84.0732Z" fill="url(#paint6_linear_507_131)"/>
<g clip-path="url(#clip2_507_131)">
<path d="M282 220C282 211.716 275.284 205 267 205C258.716 205 252 211.716 252 220C252 228.284 258.716 235 267 235C275.284 235 282 228.284 282 220Z" fill="url(#paint7_linear_507_131)"/>
<g style="mix-blend-mode:screen" opacity="0.8">
<path fill-rule="evenodd" clip-rule="evenodd" d="M275.388 227.303V224.326L275.38 224.326L273.332 219.605H270.054L272 224.224H265.655C264.431 224.224 263.276 223.742 262.403 222.867C261.53 221.991 261.049 220.834 261.049 219.608C261.049 218.382 261.53 217.225 262.403 216.35C263.276 215.475 264.431 214.994 265.655 214.994L271.701 214.987L270.421 211.908L265.655 211.915C261.421 211.915 257.822 215.366 257.822 219.608C257.822 223.851 261.421 227.303 265.655 227.303H275.388ZM265.14 219.195C265.989 219.195 266.677 218.505 266.677 217.655C266.677 216.805 265.989 216.116 265.14 216.116C264.292 216.116 263.604 216.805 263.604 217.655C263.604 218.505 264.292 219.195 265.14 219.195ZM266.677 221.607C266.677 222.457 265.989 223.146 265.14 223.146C264.292 223.146 263.604 222.457 263.604 221.607C263.604 220.756 264.292 220.067 265.14 220.067C265.989 220.067 266.677 220.756 266.677 221.607Z" fill="white"/>
<path d="M275.388 224.326H275.681V224.042L275.397 224.033L275.388 224.326ZM275.388 227.303V227.596H275.681V227.303H275.388ZM275.38 224.326L275.111 224.443L275.185 224.613L275.371 224.619L275.38 224.326ZM273.332 219.605L273.601 219.489L273.524 219.312H273.332V219.605ZM270.054 219.605V219.312H269.613L269.784 219.719L270.054 219.605ZM272 224.224V224.517H272.442L272.27 224.11L272 224.224ZM265.655 214.993V215.286H265.655L265.655 214.993ZM271.701 214.987L271.701 215.28L272.14 215.279L271.971 214.874L271.701 214.987ZM270.421 211.908L270.691 211.795L270.616 211.615L270.42 211.615L270.421 211.908ZM265.655 211.915V212.207H265.655L265.655 211.915ZM275.095 224.326V227.303H275.681V224.326H275.095ZM275.371 224.619L275.379 224.619L275.397 224.033L275.389 224.033L275.371 224.619ZM273.063 219.722L275.111 224.443L275.649 224.209L273.601 219.489L273.063 219.722ZM270.054 219.898H273.332V219.312H270.054V219.898ZM272.27 224.11L270.324 219.491L269.784 219.719L271.73 224.337L272.27 224.11ZM265.655 224.517H272V223.931H265.655V224.517ZM262.196 223.074C263.123 224.003 264.353 224.517 265.655 224.517V223.931C264.51 223.931 263.429 223.48 262.611 222.66L262.196 223.074ZM260.756 219.608C260.756 220.913 261.268 222.144 262.196 223.074L262.611 222.66C261.792 221.839 261.342 220.756 261.342 219.608H260.756ZM262.196 216.143C261.268 217.073 260.756 218.304 260.756 219.608H261.342C261.342 218.461 261.792 217.378 262.611 216.557L262.196 216.143ZM265.655 214.701C264.353 214.701 263.123 215.214 262.196 216.143L262.611 216.557C263.43 215.737 264.51 215.286 265.655 215.286V214.701ZM271.701 214.694L265.654 214.701L265.655 215.286L271.701 215.28L271.701 214.694ZM270.15 212.02L271.43 215.099L271.971 214.874L270.691 211.795L270.15 212.02ZM265.655 212.207L270.421 212.201L270.42 211.615L265.654 211.622L265.655 212.207ZM258.115 219.608C258.115 215.534 261.576 212.207 265.655 212.207V211.622C261.266 211.622 257.529 215.197 257.529 219.608H258.115ZM265.655 227.01C261.576 227.01 258.115 223.682 258.115 219.608H257.529C257.529 224.02 261.266 227.596 265.655 227.596V227.01ZM275.388 227.01H265.655V227.596H275.388V227.01ZM266.384 217.655C266.384 218.344 265.826 218.902 265.14 218.902V219.488C266.151 219.488 266.97 218.667 266.97 217.655H266.384ZM265.14 216.409C265.826 216.409 266.384 216.966 266.384 217.655H266.97C266.97 216.644 266.151 215.823 265.14 215.823V216.409ZM263.897 217.655C263.897 216.966 264.454 216.409 265.14 216.409V215.823C264.129 215.823 263.311 216.644 263.311 217.655H263.897ZM265.14 218.902C264.454 218.902 263.897 218.344 263.897 217.655H263.311C263.311 218.667 264.129 219.488 265.14 219.488V218.902ZM265.14 223.439C266.151 223.439 266.97 222.618 266.97 221.607H266.384C266.384 222.296 265.826 222.853 265.14 222.853V223.439ZM263.311 221.607C263.311 222.618 264.129 223.439 265.14 223.439V222.853C264.454 222.853 263.897 222.296 263.897 221.607H263.311ZM265.14 219.774C264.129 219.774 263.311 220.595 263.311 221.607H263.897C263.897 220.918 264.454 220.36 265.14 220.36V219.774ZM266.97 221.607C266.97 220.595 266.151 219.774 265.14 219.774V220.36C265.826 220.36 266.384 220.918 266.384 221.607H266.97Z" fill="black"/>
</g>
</g>
<g clip-path="url(#clip3_507_131)">
<path d="M324 97C324 88.7157 317.284 82 309 82C300.716 82 294 88.7157 294 97C294 105.284 300.716 112 309 112C317.284 112 324 105.284 324 97Z" fill="url(#paint8_linear_507_131)"/>
<g style="mix-blend-mode:screen" opacity="0.8">
<path fill-rule="evenodd" clip-rule="evenodd" d="M317.388 104.303V101.326L317.38 101.326L315.332 96.6053H312.054L314 101.224H307.655C306.431 101.224 305.276 100.742 304.403 99.8669C303.53 98.9915 303.049 97.8342 303.049 96.6083C303.049 95.3824 303.53 94.2252 304.403 93.3503C305.276 92.4754 306.431 91.9935 307.655 91.9935L313.701 91.9868L312.421 88.9078L307.655 88.9145C303.421 88.9145 299.822 92.3656 299.822 96.6083C299.822 100.851 303.421 104.303 307.655 104.303H317.388ZM307.14 96.1948C307.989 96.1948 308.677 95.5055 308.677 94.6553C308.677 93.8051 307.989 93.1158 307.14 93.1158C306.292 93.1158 305.604 93.8051 305.604 94.6553C305.604 95.5055 306.292 96.1948 307.14 96.1948ZM308.677 98.6066C308.677 99.4568 307.989 100.146 307.14 100.146C306.292 100.146 305.604 99.4568 305.604 98.6066C305.604 97.7564 306.292 97.0671 307.14 97.0671C307.989 97.0671 308.677 97.7564 308.677 98.6066Z" fill="white"/>
<path d="M317.388 101.326H317.681V101.042L317.397 101.033L317.388 101.326ZM317.388 104.303V104.596H317.681V104.303H317.388ZM317.38 101.326L317.111 101.443L317.185 101.613L317.371 101.619L317.38 101.326ZM315.332 96.6053L315.601 96.4886L315.524 96.3123H315.332V96.6053ZM312.054 96.6053V96.3123H311.613L311.784 96.719L312.054 96.6053ZM314 101.224V101.517H314.442L314.27 101.11L314 101.224ZM307.655 91.9935V92.2865H307.655L307.655 91.9935ZM313.701 91.9868L313.701 92.2798L314.14 92.2793L313.971 91.8743L313.701 91.9868ZM312.421 88.9078L312.691 88.7953L312.616 88.6146L312.42 88.6149L312.421 88.9078ZM307.655 88.9145V89.2075H307.655L307.655 88.9145ZM317.095 101.326V104.303H317.681V101.326H317.095ZM317.371 101.619L317.379 101.619L317.397 101.033L317.389 101.033L317.371 101.619ZM315.063 96.7219L317.111 101.443L317.649 101.209L315.601 96.4886L315.063 96.7219ZM312.054 96.8983H315.332V96.3123H312.054V96.8983ZM314.27 101.11L312.324 96.4915L311.784 96.719L313.73 101.337L314.27 101.11ZM307.655 101.517H314V100.931H307.655V101.517ZM304.196 100.074C305.123 101.003 306.353 101.517 307.655 101.517V100.931C306.51 100.931 305.429 100.48 304.611 99.6599L304.196 100.074ZM302.756 96.6083C302.756 97.9126 303.268 99.144 304.196 100.074L304.611 99.66C303.792 98.8389 303.342 97.7558 303.342 96.6083H302.756ZM304.196 93.1433C303.268 94.0726 302.756 95.304 302.756 96.6083H303.342C303.342 95.4607 303.792 94.3778 304.611 93.5572L304.196 93.1433ZM307.655 91.7005C306.353 91.7005 305.123 92.2139 304.196 93.1433L304.611 93.5572C305.43 92.7367 306.51 92.2865 307.655 92.2865V91.7005ZM313.701 91.6938L307.654 91.7005L307.655 92.2865L313.701 92.2798L313.701 91.6938ZM312.15 89.0203L313.43 92.0993L313.971 91.8743L312.691 88.7953L312.15 89.0203ZM307.655 89.2075L312.421 89.2008L312.42 88.6149L307.654 88.6215L307.655 89.2075ZM300.115 96.6083C300.115 92.5343 303.576 89.2075 307.655 89.2075V88.6215C303.266 88.6215 299.529 92.1968 299.529 96.6083H300.115ZM307.655 104.01C303.576 104.01 300.115 100.682 300.115 96.6083H299.529C299.529 101.02 303.266 104.596 307.655 104.596V104.01ZM317.388 104.01H307.655V104.596H317.388V104.01ZM308.384 94.6553C308.384 95.3442 307.826 95.9018 307.14 95.9018V96.4877C308.151 96.4877 308.97 95.6667 308.97 94.6553H308.384ZM307.14 93.4088C307.826 93.4088 308.384 93.9663 308.384 94.6553H308.97C308.97 93.6438 308.151 92.8228 307.14 92.8228V93.4088ZM305.897 94.6553C305.897 93.9663 306.454 93.4088 307.14 93.4088V92.8228C306.129 92.8228 305.311 93.6438 305.311 94.6553H305.897ZM307.14 95.9018C306.454 95.9018 305.897 95.3442 305.897 94.6553H305.311C305.311 95.6667 306.129 96.4877 307.14 96.4877V95.9018ZM307.14 100.439C308.151 100.439 308.97 99.6181 308.97 98.6066H308.384C308.384 99.2956 307.826 99.8531 307.14 99.8531V100.439ZM305.311 98.6066C305.311 99.6181 306.129 100.439 307.14 100.439V99.8531C306.454 99.8531 305.897 99.2956 305.897 98.6066H305.311ZM307.14 96.7742C306.129 96.7742 305.311 97.5952 305.311 98.6066H305.897C305.897 97.9176 306.454 97.3601 307.14 97.3601V96.7742ZM308.97 98.6066C308.97 97.5952 308.151 96.7742 307.14 96.7742V97.3601C307.826 97.3601 308.384 97.9176 308.384 98.6066H308.97Z" fill="black"/>
</g>
</g>
<g clip-path="url(#clip4_507_131)">
<path d="M235 74C235 65.7157 228.284 59 220 59C211.716 59 205 65.7157 205 74C205 82.2843 211.716 89 220 89C228.284 89 235 82.2843 235 74Z" fill="url(#paint9_linear_507_131)"/>
<g style="mix-blend-mode:screen" opacity="0.8">
<path fill-rule="evenodd" clip-rule="evenodd" d="M228.388 81.3026V78.3263L228.38 78.3261L226.332 73.6053H223.054L225 78.2237H218.655C217.431 78.2237 216.276 77.7418 215.403 76.8669C214.53 75.9915 214.049 74.8342 214.049 73.6083C214.049 72.3824 214.53 71.2252 215.403 70.3503C216.276 69.4754 217.431 68.9935 218.655 68.9935L224.701 68.9868L223.421 65.9078L218.655 65.9145C214.421 65.9145 210.822 69.3656 210.822 73.6083C210.822 77.8511 214.421 81.3026 218.655 81.3026H228.388ZM218.14 73.1948C218.989 73.1948 219.677 72.5055 219.677 71.6553C219.677 70.8051 218.989 70.1158 218.14 70.1158C217.292 70.1158 216.604 70.8051 216.604 71.6553C216.604 72.5055 217.292 73.1948 218.14 73.1948ZM219.677 75.6066C219.677 76.4568 218.989 77.1461 218.14 77.1461C217.292 77.1461 216.604 76.4568 216.604 75.6066C216.604 74.7564 217.292 74.0671 218.14 74.0671C218.989 74.0671 219.677 74.7564 219.677 75.6066Z" fill="white"/>
<path d="M228.388 78.3263H228.681V78.0421L228.397 78.0335L228.388 78.3263ZM228.388 81.3026V81.5956H228.681V81.3026H228.388ZM228.38 78.3261L228.111 78.4427L228.185 78.6132L228.371 78.6189L228.38 78.3261ZM226.332 73.6053L226.601 73.4886L226.524 73.3123H226.332V73.6053ZM223.054 73.6053V73.3123H222.613L222.784 73.719L223.054 73.6053ZM225 78.2236V78.5166H225.442L225.27 78.1099L225 78.2236ZM218.655 68.9935V69.2865H218.655L218.655 68.9935ZM224.701 68.9868L224.701 69.2798L225.14 69.2793L224.971 68.8743L224.701 68.9868ZM223.421 65.9078L223.691 65.7953L223.616 65.6146L223.42 65.6149L223.421 65.9078ZM218.655 65.9145V66.2075H218.655L218.655 65.9145ZM228.095 78.3263V81.3026H228.681V78.3263H228.095ZM228.371 78.6189L228.379 78.6192L228.397 78.0335L228.389 78.0332L228.371 78.6189ZM226.063 73.7219L228.111 78.4427L228.649 78.2095L226.601 73.4886L226.063 73.7219ZM223.054 73.8983H226.332V73.3123H223.054V73.8983ZM225.27 78.1099L223.324 73.4915L222.784 73.719L224.73 78.3374L225.27 78.1099ZM218.655 78.5166H225V77.9307H218.655V78.5166ZM215.196 77.0738C216.123 78.0032 217.353 78.5166 218.655 78.5166V77.9307C217.51 77.9307 216.429 77.4804 215.611 76.6599L215.196 77.0738ZM213.756 73.6083C213.756 74.9126 214.268 76.144 215.196 77.0738L215.611 76.66C214.792 75.8389 214.342 74.7558 214.342 73.6083H213.756ZM215.196 70.1433C214.268 71.0726 213.756 72.304 213.756 73.6083H214.342C214.342 72.4607 214.792 71.3778 215.611 70.5572L215.196 70.1433ZM218.655 68.7005C217.353 68.7005 216.123 69.2139 215.196 70.1433L215.611 70.5572C216.43 69.7367 217.51 69.2865 218.655 69.2865V68.7005ZM224.701 68.6938L218.654 68.7005L218.655 69.2865L224.701 69.2798L224.701 68.6938ZM223.15 66.0203L224.43 69.0993L224.971 68.8743L223.691 65.7953L223.15 66.0203ZM218.655 66.2075L223.421 66.2008L223.42 65.6149L218.654 65.6215L218.655 66.2075ZM211.115 73.6083C211.115 69.5343 214.576 66.2075 218.655 66.2075V65.6215C214.266 65.6215 210.529 69.1968 210.529 73.6083H211.115ZM218.655 81.0097C214.576 81.0097 211.115 77.6824 211.115 73.6083H210.529C210.529 78.0199 214.266 81.5956 218.655 81.5956V81.0097ZM228.388 81.0097H218.655V81.5956H228.388V81.0097ZM219.384 71.6553C219.384 72.3442 218.826 72.9018 218.14 72.9018V73.4877C219.151 73.4877 219.97 72.6667 219.97 71.6553H219.384ZM218.14 70.4088C218.826 70.4088 219.384 70.9663 219.384 71.6553H219.97C219.97 70.6438 219.151 69.8228 218.14 69.8228V70.4088ZM216.897 71.6553C216.897 70.9663 217.454 70.4088 218.14 70.4088V69.8228C217.129 69.8228 216.311 70.6438 216.311 71.6553H216.897ZM218.14 72.9018C217.454 72.9018 216.897 72.3442 216.897 71.6553H216.311C216.311 72.6667 217.129 73.4877 218.14 73.4877V72.9018ZM218.14 77.4391C219.151 77.4391 219.97 76.6181 219.97 75.6066H219.384C219.384 76.2956 218.826 76.8531 218.14 76.8531V77.4391ZM216.311 75.6066C216.311 76.6181 217.129 77.4391 218.14 77.4391V76.8531C217.454 76.8531 216.897 76.2956 216.897 75.6066H216.311ZM218.14 73.7742C217.129 73.7742 216.311 74.5952 216.311 75.6066H216.897C216.897 74.9176 217.454 74.3601 218.14 74.3601V73.7742ZM219.97 75.6066C219.97 74.5952 219.151 73.7742 218.14 73.7742V74.3601C218.826 74.3601 219.384 74.9176 219.384 75.6066H219.97Z" fill="black"/>
</g>
</g>
<g clip-path="url(#clip5_507_131)">
<path d="M413 220C413 211.716 406.284 205 398 205C389.716 205 383 211.716 383 220C383 228.284 389.716 235 398 235C406.284 235 413 228.284 413 220Z" fill="url(#paint10_linear_507_131)"/>
<g style="mix-blend-mode:screen" opacity="0.8">
<path fill-rule="evenodd" clip-rule="evenodd" d="M406.388 227.303V224.326L406.38 224.326L404.332 219.605H401.054L403 224.224H396.655C395.431 224.224 394.276 223.742 393.403 222.867C392.53 221.991 392.049 220.834 392.049 219.608C392.049 218.382 392.53 217.225 393.403 216.35C394.276 215.475 395.431 214.994 396.655 214.994L402.701 214.987L401.421 211.908L396.655 211.915C392.421 211.915 388.822 215.366 388.822 219.608C388.822 223.851 392.421 227.303 396.655 227.303H406.388ZM396.14 219.195C396.989 219.195 397.677 218.505 397.677 217.655C397.677 216.805 396.989 216.116 396.14 216.116C395.292 216.116 394.604 216.805 394.604 217.655C394.604 218.505 395.292 219.195 396.14 219.195ZM397.677 221.607C397.677 222.457 396.989 223.146 396.14 223.146C395.292 223.146 394.604 222.457 394.604 221.607C394.604 220.756 395.292 220.067 396.14 220.067C396.989 220.067 397.677 220.756 397.677 221.607Z" fill="white"/>
<path d="M406.388 224.326H406.681V224.042L406.397 224.033L406.388 224.326ZM406.388 227.303V227.596H406.681V227.303H406.388ZM406.38 224.326L406.111 224.443L406.185 224.613L406.371 224.619L406.38 224.326ZM404.332 219.605L404.601 219.489L404.524 219.312H404.332V219.605ZM401.054 219.605V219.312H400.613L400.784 219.719L401.054 219.605ZM403 224.224V224.517H403.442L403.27 224.11L403 224.224ZM396.655 214.993V215.286H396.655L396.655 214.993ZM402.701 214.987L402.701 215.28L403.14 215.279L402.971 214.874L402.701 214.987ZM401.421 211.908L401.691 211.795L401.616 211.615L401.42 211.615L401.421 211.908ZM396.655 211.915V212.207H396.655L396.655 211.915ZM406.095 224.326V227.303H406.681V224.326H406.095ZM406.371 224.619L406.379 224.619L406.397 224.033L406.389 224.033L406.371 224.619ZM404.063 219.722L406.111 224.443L406.649 224.209L404.601 219.489L404.063 219.722ZM401.054 219.898H404.332V219.312H401.054V219.898ZM403.27 224.11L401.324 219.491L400.784 219.719L402.73 224.337L403.27 224.11ZM396.655 224.517H403V223.931H396.655V224.517ZM393.196 223.074C394.123 224.003 395.353 224.517 396.655 224.517V223.931C395.51 223.931 394.429 223.48 393.611 222.66L393.196 223.074ZM391.756 219.608C391.756 220.913 392.268 222.144 393.196 223.074L393.611 222.66C392.792 221.839 392.342 220.756 392.342 219.608H391.756ZM393.196 216.143C392.268 217.073 391.756 218.304 391.756 219.608H392.342C392.342 218.461 392.792 217.378 393.611 216.557L393.196 216.143ZM396.655 214.701C395.353 214.701 394.123 215.214 393.196 216.143L393.611 216.557C394.43 215.737 395.51 215.286 396.655 215.286V214.701ZM402.701 214.694L396.654 214.701L396.655 215.286L402.701 215.28L402.701 214.694ZM401.15 212.02L402.43 215.099L402.971 214.874L401.691 211.795L401.15 212.02ZM396.655 212.207L401.421 212.201L401.42 211.615L396.654 211.622L396.655 212.207ZM389.115 219.608C389.115 215.534 392.576 212.207 396.655 212.207V211.622C392.266 211.622 388.529 215.197 388.529 219.608H389.115ZM396.655 227.01C392.576 227.01 389.115 223.682 389.115 219.608H388.529C388.529 224.02 392.266 227.596 396.655 227.596V227.01ZM406.388 227.01H396.655V227.596H406.388V227.01ZM397.384 217.655C397.384 218.344 396.826 218.902 396.14 218.902V219.488C397.151 219.488 397.97 218.667 397.97 217.655H397.384ZM396.14 216.409C396.826 216.409 397.384 216.966 397.384 217.655H397.97C397.97 216.644 397.151 215.823 396.14 215.823V216.409ZM394.897 217.655C394.897 216.966 395.454 216.409 396.14 216.409V215.823C395.129 215.823 394.311 216.644 394.311 217.655H394.897ZM396.14 218.902C395.454 218.902 394.897 218.344 394.897 217.655H394.311C394.311 218.667 395.129 219.488 396.14 219.488V218.902ZM396.14 223.439C397.151 223.439 397.97 222.618 397.97 221.607H397.384C397.384 222.296 396.826 222.853 396.14 222.853V223.439ZM394.311 221.607C394.311 222.618 395.129 223.439 396.14 223.439V222.853C395.454 222.853 394.897 222.296 394.897 221.607H394.311ZM396.14 219.774C395.129 219.774 394.311 220.595 394.311 221.607H394.897C394.897 220.918 395.454 220.36 396.14 220.36V219.774ZM397.97 221.607C397.97 220.595 397.151 219.774 396.14 219.774V220.36C396.826 220.36 397.384 220.918 397.384 221.607H397.97Z" fill="black"/>
</g>
</g>
<path d="M123.191 244.541C122.948 231.283 112.415 220.752 99.6581 221.004C87.2417 221.244 77.243 231.649 77.0121 244.541C77.0121 244.604 77 244.667 77 244.718V245.084V288.482C77 289.96 78.1542 291.147 79.5635 291.147C80.9728 291.147 82.1269 289.947 82.1269 288.482V280.73C82.1269 279.252 83.2811 278.065 84.6904 278.065C86.0997 278.065 87.2538 279.265 87.2538 280.73V284.404C87.2903 285.881 88.4566 287.043 89.878 287.018C91.2509 286.993 92.3565 285.831 92.3929 284.404V280.73C92.3929 279.252 93.5471 278.065 94.9564 278.065C96.3778 278.065 97.5198 279.265 97.5198 280.73V281.74C97.5198 283.217 98.674 284.404 100.083 284.404C101.505 284.404 102.647 283.204 102.647 281.74V280.73C102.683 279.252 103.85 278.091 105.271 278.116C106.644 278.141 107.749 279.303 107.786 280.73V284.404C107.786 285.881 108.94 287.068 110.349 287.068C111.759 287.068 112.937 285.894 112.937 284.417V280.742C112.937 279.265 114.091 278.078 115.501 278.078C116.922 278.078 118.064 279.277 118.064 280.742V288.495C118.064 289.972 119.218 291.159 120.627 291.159C122.037 291.159 123.191 289.96 123.191 288.495V244.73C123.203 244.667 123.203 244.604 123.191 244.541ZM91.5789 248.392C89.307 248.392 87.4725 246.208 87.4725 243.493C87.4725 240.778 89.3192 238.594 91.5789 238.594C93.8387 238.594 95.6853 240.778 95.6853 243.493C95.6853 246.208 93.8508 248.392 91.5789 248.392ZM100.278 255.312C98.2123 255.312 96.5479 254.036 96.5479 252.458C96.5479 250.88 98.2245 251.839 100.278 251.839C102.331 251.839 104.007 250.892 104.007 252.458C104.007 254.024 102.343 255.299 100.278 255.312ZM108.624 248.392C106.352 248.392 104.518 246.208 104.518 243.493C104.518 240.778 106.352 238.594 108.624 238.594C110.896 238.594 112.731 240.778 112.731 243.493C112.731 246.208 110.884 248.392 108.624 248.392Z" fill="white"/>
<g clip-path="url(#clip6_507_131)">
<path d="M138 262C138 253.716 131.284 247 123 247C114.716 247 108 253.716 108 262C108 270.284 114.716 277 123 277C131.284 277 138 270.284 138 262Z" fill="url(#paint11_linear_507_131)"/>
<g style="mix-blend-mode:screen" opacity="0.8">
<path fill-rule="evenodd" clip-rule="evenodd" d="M131.388 269.303V266.326L131.38 266.326L129.332 261.605H126.054L128 266.224H121.655C120.431 266.224 119.276 265.742 118.403 264.867C117.53 263.991 117.049 262.834 117.049 261.608C117.049 260.382 117.53 259.225 118.403 258.35C119.276 257.475 120.431 256.994 121.655 256.994L127.701 256.987L126.421 253.908L121.655 253.915C117.421 253.915 113.822 257.366 113.822 261.608C113.822 265.851 117.421 269.303 121.655 269.303H131.388ZM121.14 261.195C121.989 261.195 122.677 260.505 122.677 259.655C122.677 258.805 121.989 258.116 121.14 258.116C120.292 258.116 119.604 258.805 119.604 259.655C119.604 260.505 120.292 261.195 121.14 261.195ZM122.677 263.607C122.677 264.457 121.989 265.146 121.14 265.146C120.292 265.146 119.604 264.457 119.604 263.607C119.604 262.756 120.292 262.067 121.14 262.067C121.989 262.067 122.677 262.756 122.677 263.607Z" fill="white"/>
<path d="M131.388 266.326H131.681V266.042L131.397 266.033L131.388 266.326ZM131.388 269.303V269.596H131.681V269.303H131.388ZM131.38 266.326L131.111 266.443L131.185 266.613L131.371 266.619L131.38 266.326ZM129.332 261.605L129.601 261.489L129.524 261.312H129.332V261.605ZM126.054 261.605V261.312H125.613L125.784 261.719L126.054 261.605ZM128 266.224V266.517H128.442L128.27 266.11L128 266.224ZM121.655 256.993V257.286H121.655L121.655 256.993ZM127.701 256.987L127.701 257.28L128.14 257.279L127.971 256.874L127.701 256.987ZM126.421 253.908L126.691 253.795L126.616 253.615L126.42 253.615L126.421 253.908ZM121.655 253.915V254.207H121.655L121.655 253.915ZM131.095 266.326V269.303H131.681V266.326H131.095ZM131.371 266.619L131.379 266.619L131.397 266.033L131.389 266.033L131.371 266.619ZM129.063 261.722L131.111 266.443L131.649 266.209L129.601 261.489L129.063 261.722ZM126.054 261.898H129.332V261.312H126.054V261.898ZM128.27 266.11L126.324 261.491L125.784 261.719L127.73 266.337L128.27 266.11ZM121.655 266.517H128V265.931H121.655V266.517ZM118.196 265.074C119.123 266.003 120.353 266.517 121.655 266.517V265.931C120.51 265.931 119.429 265.48 118.611 264.66L118.196 265.074ZM116.756 261.608C116.756 262.913 117.268 264.144 118.196 265.074L118.611 264.66C117.792 263.839 117.342 262.756 117.342 261.608H116.756ZM118.196 258.143C117.268 259.073 116.756 260.304 116.756 261.608H117.342C117.342 260.461 117.792 259.378 118.611 258.557L118.196 258.143ZM121.655 256.701C120.353 256.701 119.123 257.214 118.196 258.143L118.611 258.557C119.43 257.737 120.51 257.286 121.655 257.286V256.701ZM127.701 256.694L121.654 256.701L121.655 257.286L127.701 257.28L127.701 256.694ZM126.15 254.02L127.43 257.099L127.971 256.874L126.691 253.795L126.15 254.02ZM121.655 254.207L126.421 254.201L126.42 253.615L121.654 253.622L121.655 254.207ZM114.115 261.608C114.115 257.534 117.576 254.207 121.655 254.207V253.622C117.266 253.622 113.529 257.197 113.529 261.608H114.115ZM121.655 269.01C117.576 269.01 114.115 265.682 114.115 261.608H113.529C113.529 266.02 117.266 269.596 121.655 269.596V269.01ZM131.388 269.01H121.655V269.596H131.388V269.01ZM122.384 259.655C122.384 260.344 121.826 260.902 121.14 260.902V261.488C122.151 261.488 122.97 260.667 122.97 259.655H122.384ZM121.14 258.409C121.826 258.409 122.384 258.966 122.384 259.655H122.97C122.97 258.644 122.151 257.823 121.14 257.823V258.409ZM119.897 259.655C119.897 258.966 120.454 258.409 121.14 258.409V257.823C120.129 257.823 119.311 258.644 119.311 259.655H119.897ZM121.14 260.902C120.454 260.902 119.897 260.344 119.897 259.655H119.311C119.311 260.667 120.129 261.488 121.14 261.488V260.902ZM121.14 265.439C122.151 265.439 122.97 264.618 122.97 263.607H122.384C122.384 264.296 121.826 264.853 121.14 264.853V265.439ZM119.311 263.607C119.311 264.618 120.129 265.439 121.14 265.439V264.853C120.454 264.853 119.897 264.296 119.897 263.607H119.311ZM121.14 261.774C120.129 261.774 119.311 262.595 119.311 263.607H119.897C119.897 262.918 120.454 262.36 121.14 262.36V261.774ZM122.97 263.607C122.97 262.595 122.151 261.774 121.14 261.774V262.36C121.826 262.36 122.384 262.918 122.384 263.607H122.97Z" fill="black"/>
</g>
</g>
</g>
<defs>
<linearGradient id="paint0_linear_507_131" x1="366.14" y1="127.76" x2="144.393" y2="278.982" gradientUnits="userSpaceOnUse">
<stop stop-color="#4201FA"/>
<stop offset="1" stop-color="#4C007B"/>
</linearGradient>
<linearGradient id="paint1_linear_507_131" x1="533.91" y1="111.594" x2="380.036" y2="192.316" gradientUnits="userSpaceOnUse">
<stop stop-color="#FF00D6"/>
<stop offset="1" stop-color="#FFD6FD"/>
</linearGradient>
<linearGradient id="paint2_linear_507_131" x1="105.5" y1="177" x2="105.5" y2="284" gradientUnits="userSpaceOnUse">
<stop stop-color="#050010"/>
<stop offset="1" stop-color="#AA86F6"/>
</linearGradient>
<linearGradient id="paint3_linear_507_131" x1="11.2239" y1="136.187" x2="109.011" y2="88.8984" gradientUnits="userSpaceOnUse">
<stop stop-color="#30BAC6"/>
<stop offset="1" stop-color="#B6509E"/>
</linearGradient>
<linearGradient id="paint4_linear_507_131" x1="83" y1="88" x2="83" y2="118" gradientUnits="userSpaceOnUse">
<stop stop-color="#B3B2D3"/>
<stop offset="0.526" stop-color="#8C8ADA"/>
<stop offset="1" stop-color="#6D69DE"/>
</linearGradient>
<linearGradient id="paint5_linear_507_131" x1="319.274" y1="255.469" x2="416.704" y2="210.201" gradientUnits="userSpaceOnUse">
<stop stop-color="#30BAC6"/>
<stop offset="1" stop-color="#B6509E"/>
</linearGradient>
<linearGradient id="paint6_linear_507_131" x1="276.89" y1="110.247" x2="316.86" y2="92.0413" gradientUnits="userSpaceOnUse">
<stop stop-color="#30BAC6"/>
<stop offset="1" stop-color="#B6509E"/>
</linearGradient>
<linearGradient id="paint7_linear_507_131" x1="267" y1="205" x2="267" y2="235" gradientUnits="userSpaceOnUse">
<stop stop-color="#B3B2D3"/>
<stop offset="0.526" stop-color="#8C8ADA"/>
<stop offset="1" stop-color="#6D69DE"/>
</linearGradient>
<linearGradient id="paint8_linear_507_131" x1="309" y1="82" x2="309" y2="112" gradientUnits="userSpaceOnUse">
<stop stop-color="#B3B2D3"/>
<stop offset="0.526" stop-color="#8C8ADA"/>
<stop offset="1" stop-color="#6D69DE"/>
</linearGradient>
<linearGradient id="paint9_linear_507_131" x1="220" y1="59" x2="220" y2="89" gradientUnits="userSpaceOnUse">
<stop stop-color="#B3B2D3"/>
<stop offset="0.526" stop-color="#8C8ADA"/>
<stop offset="1" stop-color="#6D69DE"/>
</linearGradient>
<linearGradient id="paint10_linear_507_131" x1="398" y1="205" x2="398" y2="235" gradientUnits="userSpaceOnUse">
<stop stop-color="#B3B2D3"/>
<stop offset="0.526" stop-color="#8C8ADA"/>
<stop offset="1" stop-color="#6D69DE"/>
</linearGradient>
<linearGradient id="paint11_linear_507_131" x1="123" y1="247" x2="123" y2="277" gradientUnits="userSpaceOnUse">
<stop stop-color="#B3B2D3"/>
<stop offset="0.526" stop-color="#8C8ADA"/>
<stop offset="1" stop-color="#6D69DE"/>
</linearGradient>
<clipPath id="clip0_507_131">
<rect width="440" height="316" fill="white" transform="translate(0.5)"/>
</clipPath>
<clipPath id="clip1_507_131">
<rect width="30" height="30" fill="white" transform="translate(68 88)"/>
</clipPath>
<clipPath id="clip2_507_131">
<rect width="30" height="30" fill="white" transform="translate(252 205)"/>
</clipPath>
<clipPath id="clip3_507_131">
<rect width="30" height="30" fill="white" transform="translate(294 82)"/>
</clipPath>
<clipPath id="clip4_507_131">
<rect width="30" height="30" fill="white" transform="translate(205 59)"/>
</clipPath>
<clipPath id="clip5_507_131">
<rect width="30" height="30" fill="white" transform="translate(383 205)"/>
</clipPath>
<clipPath id="clip6_507_131">
<rect width="30" height="30" fill="white" transform="translate(108 247)"/>
</clipPath>
</defs>
</svg>
