<svg width="441" height="316" viewBox="0 0 441 316" fill="none" xmlns="http://www.w3.org/2000/svg">
<g clip-path="url(#clip0_507_131)">
<ellipse cx="221" cy="158" rx="123" ry="126" fill="url(#paint0_linear_507_131)"/>
<path d="M441 102.5C441 148.616 404.511 186 359.5 186C314.489 186 278 148.616 278 102.5C278 56.3842 314.489 19 359.5 19C404.511 19 441 56.3842 441 102.5Z" fill="url(#paint1_linear_507_131)"/>
<circle cx="105.5" cy="230.5" r="53.5" fill="url(#paint2_linear_507_131)"/>
<path d="M90.9848 68.5733C90.5798 47.9753 73.0244 31.6146 51.7635 32.0069C31.0695 32.3796 14.405 48.5442 14.0202 68.5733C14.0202 68.6714 14 68.7695 14 68.848V69.4169V136.841C14 139.136 15.9236 140.98 18.2724 140.98C20.6213 140.98 22.5449 139.117 22.5449 136.841V124.796C22.5449 122.501 24.4685 120.657 26.8173 120.657C29.1661 120.657 31.0897 122.521 31.0897 124.796V130.505C31.1505 132.8 33.0943 134.605 35.4634 134.566C37.7515 134.526 39.5941 132.722 39.6549 130.505V124.796C39.6549 122.501 41.5785 120.657 43.9273 120.657C46.2964 120.657 48.1997 122.521 48.1997 124.796V126.366C48.1997 128.661 50.1233 130.505 52.4722 130.505C54.8412 130.505 56.7446 128.641 56.7446 126.366V124.796C56.8053 122.501 58.7492 120.696 61.1183 120.735C63.4063 120.775 65.249 122.579 65.3097 124.796V130.505C65.3097 132.8 67.2333 134.644 69.5821 134.644C71.931 134.644 73.8951 132.82 73.8951 130.524V124.816C73.8951 122.521 75.8187 120.677 78.1675 120.677C80.5366 120.677 82.4399 122.54 82.4399 124.816V136.861C82.4399 139.156 84.3635 141 86.7124 141C89.0612 141 90.9848 139.136 90.9848 136.861V68.8676C91.0051 68.7695 91.0051 68.6714 90.9848 68.5733ZM38.2982 74.5566C34.5117 74.5566 31.4542 71.1628 31.4542 66.9451C31.4542 62.7274 34.532 59.3337 38.2982 59.3337C42.0644 59.3337 45.1422 62.7274 45.1422 66.9451C45.1422 71.1628 42.0847 74.5566 38.2982 74.5566ZM52.7961 85.3068C49.3539 85.3068 46.5798 83.3255 46.5798 80.8733C46.5798 78.4212 49.3741 79.9121 52.7961 79.9121C56.2181 79.9121 59.0124 78.4408 59.0124 80.8733C59.0124 83.3059 56.2384 85.2872 52.7961 85.3068ZM66.7069 74.5566C62.9204 74.5566 59.8629 71.1628 59.8629 66.9451C59.8629 62.7274 62.9204 59.3337 66.7069 59.3337C70.4933 59.3337 73.5508 62.7274 73.5508 66.9451C73.5508 71.1628 70.4731 74.5566 66.7069 74.5566Z" fill="url(#paint3_linear_507_131)"/>
<path d="M267.191 200.541C266.948 187.283 256.415 176.752 243.658 177.004C231.242 177.244 221.243 187.649 221.012 200.541C221.012 200.604 221 200.667 221 200.718V201.084V244.482C221 245.96 222.154 247.147 223.563 247.147C224.973 247.147 226.127 245.947 226.127 244.482V236.73C226.127 235.252 227.281 234.065 228.69 234.065C230.1 234.065 231.254 235.265 231.254 236.73V240.404C231.29 241.881 232.457 243.043 233.878 243.018C235.251 242.993 236.356 241.831 236.393 240.404V236.73C236.393 235.252 237.547 234.065 238.956 234.065C240.378 234.065 241.52 235.265 241.52 236.73V237.74C241.52 239.217 242.674 240.404 244.083 240.404C245.505 240.404 246.647 239.204 246.647 237.74V236.73C246.683 235.252 247.85 234.091 249.271 234.116C250.644 234.141 251.749 235.303 251.786 236.73V240.404C251.786 241.881 252.94 243.068 254.349 243.068C255.759 243.068 256.937 241.894 256.937 240.417V236.742C256.937 235.265 258.091 234.078 259.501 234.078C260.922 234.078 262.064 235.277 262.064 236.742V244.495C262.064 245.972 263.218 247.159 264.627 247.159C266.037 247.159 267.191 245.96 267.191 244.495V200.73C267.203 200.667 267.203 200.604 267.191 200.541ZM235.579 204.392C233.307 204.392 231.473 202.208 231.473 199.493C231.473 196.778 233.319 194.594 235.579 194.594C237.839 194.594 239.685 196.778 239.685 199.493C239.685 202.208 237.851 204.392 235.579 204.392ZM244.278 211.312C242.212 211.312 240.548 210.036 240.548 208.458C240.548 206.88 242.224 207.839 244.278 207.839C246.331 207.839 248.007 206.892 248.007 208.458C248.007 210.024 246.343 211.299 244.278 211.312ZM252.624 204.392C250.352 204.392 248.518 202.208 248.518 199.493C248.518 196.778 250.352 194.594 252.624 194.594C254.896 194.594 256.731 196.778 256.731 199.493C256.731 202.208 254.884 204.392 252.624 204.392Z" fill="white"/>
<path d="M397.585 186.374C397.187 165.325 379.951 148.606 359.077 149.007C338.759 149.388 322.398 165.907 322.02 186.374C322.02 186.475 322 186.575 322 186.655V187.236V256.137C322 258.483 323.889 260.367 326.195 260.367C328.501 260.367 330.39 258.463 330.39 256.137V243.828C330.39 241.483 332.278 239.599 334.584 239.599C336.89 239.599 338.779 241.503 338.779 243.828V249.662C338.839 252.007 340.747 253.852 343.073 253.812C345.32 253.772 347.129 251.927 347.188 249.662V243.828C347.188 241.483 349.077 239.599 351.383 239.599C353.709 239.599 355.578 241.503 355.578 243.828V245.432C355.578 247.778 357.467 249.662 359.773 249.662C362.099 249.662 363.967 247.758 363.967 245.432V243.828C364.027 241.483 365.936 239.639 368.262 239.679C370.508 239.719 372.317 241.563 372.377 243.828V249.662C372.377 252.007 374.265 253.892 376.572 253.892C378.878 253.892 380.806 252.028 380.806 249.682V243.848C380.806 241.503 382.695 239.619 385.001 239.619C387.327 239.619 389.196 241.523 389.196 243.848V256.157C389.196 258.503 391.084 260.387 393.39 260.387C395.696 260.387 397.585 258.483 397.585 256.157V186.675C397.605 186.575 397.605 186.475 397.585 186.374ZM345.856 192.489C342.139 192.489 339.137 189.02 339.137 184.71C339.137 180.4 342.159 176.932 345.856 176.932C349.554 176.932 352.576 180.4 352.576 184.71C352.576 189.02 349.574 192.489 345.856 192.489ZM360.091 203.474C356.711 203.474 353.987 201.449 353.987 198.944C353.987 196.438 356.731 197.961 360.091 197.961C363.451 197.961 366.194 196.458 366.194 198.944C366.194 201.429 363.47 203.454 360.091 203.474ZM373.749 192.489C370.031 192.489 367.029 189.02 367.029 184.71C367.029 180.4 370.031 176.932 373.749 176.932C377.466 176.932 380.468 180.4 380.468 184.71C380.468 189.02 377.446 192.489 373.749 192.489Z" fill="url(#paint4_linear_507_131)"/>
<path d="M220.191 56.5409C219.948 43.2827 209.415 32.7519 196.658 33.0044C184.242 33.2444 174.243 43.6489 174.012 56.5409C174.012 56.6041 174 56.6672 174 56.7177V57.0839V100.482C174 101.96 175.154 103.147 176.563 103.147C177.973 103.147 179.127 101.947 179.127 100.482V92.7296C179.127 91.2522 180.281 90.0653 181.69 90.0653C183.1 90.0653 184.254 91.2649 184.254 92.7296V96.404C184.29 97.8813 185.457 99.043 186.878 99.0178C188.251 98.9925 189.356 97.8308 189.393 96.404V92.7296C189.393 91.2522 190.547 90.0653 191.956 90.0653C193.378 90.0653 194.52 91.2649 194.52 92.7296V93.7397C194.52 95.2171 195.674 96.404 197.083 96.404C198.505 96.404 199.647 95.2044 199.647 93.7397V92.7296C199.683 91.2522 200.85 90.0906 202.271 90.1158C203.644 90.1411 204.749 91.3027 204.786 92.7296V96.404C204.786 97.8813 205.94 99.0683 207.349 99.0683C208.759 99.0683 209.937 97.894 209.937 96.4166V92.7422C209.937 91.2649 211.091 90.0779 212.501 90.0779C213.922 90.0779 215.064 91.2775 215.064 92.7422V100.495C215.064 101.972 216.218 103.159 217.627 103.159C219.037 103.159 220.191 101.96 220.191 100.495V56.7303C220.203 56.6672 220.203 56.6041 220.191 56.5409ZM188.579 60.3921C186.307 60.3921 184.473 58.2077 184.473 55.4929C184.473 52.7781 186.319 50.5937 188.579 50.5937C190.839 50.5937 192.685 52.7781 192.685 55.4929C192.685 58.2077 190.851 60.3921 188.579 60.3921ZM197.278 67.3117C195.212 67.3117 193.548 66.0364 193.548 64.458C193.548 62.8796 195.224 63.8393 197.278 63.8393C199.331 63.8393 201.007 62.8923 201.007 64.458C201.007 66.0237 199.343 67.299 197.278 67.3117ZM205.624 60.3921C203.352 60.3921 201.518 58.2077 201.518 55.4929C201.518 52.7781 203.352 50.5937 205.624 50.5937C207.896 50.5937 209.731 52.7781 209.731 55.4929C209.731 58.2077 207.884 60.3921 205.624 60.3921Z" fill="white"/>
<path d="M308.794 81.5322C308.632 72.7845 301.61 65.8363 293.105 66.0029C284.828 66.1612 278.162 73.0261 278.008 81.5322C278.008 81.5738 278 81.6155 278 81.6488V81.8904V110.525C278 111.499 278.769 112.282 279.709 112.282C280.649 112.282 281.418 111.491 281.418 110.525V105.409C281.418 104.434 282.187 103.651 283.127 103.651C284.066 103.651 284.836 104.443 284.836 105.409V107.834C284.86 108.808 285.638 109.575 286.585 109.558C287.501 109.541 288.238 108.775 288.262 107.834V105.409C288.262 104.434 289.031 103.651 289.971 103.651C290.919 103.651 291.68 104.443 291.68 105.409V106.076C291.68 107.05 292.449 107.834 293.389 107.834C294.336 107.834 295.098 107.042 295.098 106.076V105.409C295.122 104.434 295.9 103.668 296.847 103.685C297.763 103.701 298.5 104.468 298.524 105.409V107.834C298.524 108.808 299.293 109.591 300.233 109.591C301.172 109.591 301.958 108.817 301.958 107.842V105.418C301.958 104.443 302.727 103.66 303.667 103.66C304.615 103.66 305.376 104.451 305.376 105.418V110.533C305.376 111.508 306.145 112.291 307.085 112.291C308.024 112.291 308.794 111.499 308.794 110.533V81.6571C308.802 81.6155 308.802 81.5738 308.794 81.5322ZM287.719 84.0732C286.205 84.0732 284.982 82.6319 284.982 80.8407C284.982 79.0495 286.213 77.6082 287.719 77.6082C289.226 77.6082 290.457 79.0495 290.457 80.8407C290.457 82.6319 289.234 84.0732 287.719 84.0732ZM293.518 88.6386C292.142 88.6386 291.032 87.7972 291.032 86.7558C291.032 85.7144 292.15 86.3476 293.518 86.3476C294.887 86.3476 296.005 85.7227 296.005 86.7558C296.005 87.7889 294.895 88.6303 293.518 88.6386ZM299.083 84.0732C297.568 84.0732 296.345 82.6319 296.345 80.8407C296.345 79.0495 297.568 77.6082 299.083 77.6082C300.597 77.6082 301.82 79.0495 301.82 80.8407C301.82 82.6319 300.589 84.0732 299.083 84.0732Z" fill="url(#paint5_linear_507_131)"/>
<path d="M123.191 244.541C122.948 231.283 112.415 220.752 99.6581 221.004C87.2417 221.244 77.243 231.649 77.0121 244.541C77.0121 244.604 77 244.667 77 244.718V245.084V288.482C77 289.96 78.1542 291.147 79.5635 291.147C80.9728 291.147 82.1269 289.947 82.1269 288.482V280.73C82.1269 279.252 83.2811 278.065 84.6904 278.065C86.0997 278.065 87.2538 279.265 87.2538 280.73V284.404C87.2903 285.881 88.4566 287.043 89.878 287.018C91.2509 286.993 92.3565 285.831 92.3929 284.404V280.73C92.3929 279.252 93.5471 278.065 94.9564 278.065C96.3778 278.065 97.5198 279.265 97.5198 280.73V281.74C97.5198 283.217 98.674 284.404 100.083 284.404C101.505 284.404 102.647 283.204 102.647 281.74V280.73C102.683 279.252 103.85 278.091 105.271 278.116C106.644 278.141 107.749 279.303 107.786 280.73V284.404C107.786 285.881 108.94 287.068 110.349 287.068C111.759 287.068 112.937 285.894 112.937 284.417V280.742C112.937 279.265 114.091 278.078 115.501 278.078C116.922 278.078 118.064 279.277 118.064 280.742V288.495C118.064 289.972 119.218 291.159 120.627 291.159C122.037 291.159 123.191 289.96 123.191 288.495V244.73C123.203 244.667 123.203 244.604 123.191 244.541ZM91.5789 248.392C89.307 248.392 87.4725 246.208 87.4725 243.493C87.4725 240.778 89.3192 238.594 91.5789 238.594C93.8387 238.594 95.6853 240.778 95.6853 243.493C95.6853 246.208 93.8508 248.392 91.5789 248.392ZM100.278 255.312C98.2123 255.312 96.5479 254.036 96.5479 252.458C96.5479 250.88 98.2245 251.839 100.278 251.839C102.331 251.839 104.007 250.892 104.007 252.458C104.007 254.024 102.343 255.299 100.278 255.312ZM108.624 248.392C106.352 248.392 104.518 246.208 104.518 243.493C104.518 240.778 106.352 238.594 108.624 238.594C110.896 238.594 112.731 240.778 112.731 243.493C112.731 246.208 110.884 248.392 108.624 248.392Z" fill="white"/>
</g>
<defs>
<linearGradient id="paint0_linear_507_131" x1="366.14" y1="127.76" x2="144.393" y2="278.982" gradientUnits="userSpaceOnUse">
<stop stop-color="#4201FA"/>
<stop offset="1" stop-color="#4C007B"/>
</linearGradient>
<linearGradient id="paint1_linear_507_131" x1="533.91" y1="111.594" x2="380.036" y2="192.316" gradientUnits="userSpaceOnUse">
<stop stop-color="#FF00D6"/>
<stop offset="1" stop-color="#FFD6FD"/>
</linearGradient>
<linearGradient id="paint2_linear_507_131" x1="105.5" y1="177" x2="105.5" y2="284" gradientUnits="userSpaceOnUse">
<stop stop-color="#050010"/>
<stop offset="1" stop-color="#AA86F6"/>
</linearGradient>
<linearGradient id="paint3_linear_507_131" x1="11.2239" y1="136.187" x2="109.011" y2="88.8984" gradientUnits="userSpaceOnUse">
<stop stop-color="#30BAC6"/>
<stop offset="1" stop-color="#B6509E"/>
</linearGradient>
<linearGradient id="paint4_linear_507_131" x1="319.274" y1="255.469" x2="416.704" y2="210.201" gradientUnits="userSpaceOnUse">
<stop stop-color="#30BAC6"/>
<stop offset="1" stop-color="#B6509E"/>
</linearGradient>
<linearGradient id="paint5_linear_507_131" x1="276.89" y1="110.247" x2="316.86" y2="92.0413" gradientUnits="userSpaceOnUse">
<stop stop-color="#30BAC6"/>
<stop offset="1" stop-color="#B6509E"/>
</linearGradient>
<clipPath id="clip0_507_131">
<rect width="440" height="316" fill="white" transform="translate(0.5)"/>
</clipPath>
</defs>
</svg>
